<?xml version="1.0" standalone="no"?>
<!DOCTYPE svg PUBLIC "-//W3C//DTD SVG 20010904//EN"
 "http://www.w3.org/TR/2001/REC-SVG-20010904/DTD/svg10.dtd">
<svg version="1.0" xmlns="http://www.w3.org/2000/svg"
 width="600.000000pt" height="600.000000pt" viewBox="0 0 600.000000 600.000000"
 preserveAspectRatio="xMidYMid meet">
<metadata>
Created by potrace 1.11, written by Peter Selinger 2001-2013
</metadata>
<g transform="translate(0.000000,600.000000) scale(0.100000,-0.100000)"
fill="#000000" stroke="none">
<path d="M2887 5016 c-22 -24 -23 -24 -35 -5 -16 26 -76 26 -99 0 -16 -20 -17
-20 -41 0 -32 25 -44 24 -80 -6 -26 -22 -31 -23 -42 -10 -21 25 -76 19 -99
-11 -20 -25 -22 -26 -39 -10 -35 31 -98 12 -114 -35 -4 -11 -9 -11 -25 4 -32
28 -78 22 -105 -13 l-24 -31 -24 26 c-44 46 -102 25 -116 -42 -5 -23 -10 -29
-24 -26 -40 10 -121 -58 -169 -143 -15 -26 -42 -50 -81 -73 -182 -105 -456
-354 -598 -543 -391 -523 -535 -1161 -406 -1798 69 -335 231 -675 457 -955 90
-112 263 -276 392 -373 581 -433 1355 -555 2039 -321 102 36 336 138 336 148
0 3 -4 22 -10 40 -7 24 -6 39 2 48 22 27 57 234 51 304 -7 78 3 101 78 183 67
73 79 79 171 86 69 6 85 11 155 54 78 48 78 48 148 43 39 -3 97 -15 130 -26
32 -12 60 -21 61 -21 6 0 86 132 129 214 108 205 185 436 226 676 18 108 22
176 23 340 1 264 -19 412 -90 652 -149 510 -505 974 -962 1253 -38 23 -76 57
-97 87 -20 27 -60 64 -89 83 -30 19 -57 43 -61 54 -8 25 -71 81 -92 81 -8 0
-31 -10 -50 -21 l-34 -21 -28 26 c-30 29 -67 33 -96 12 -16 -12 -21 -10 -43
15 -27 32 -80 40 -102 14 -10 -12 -15 -10 -34 12 -26 30 -68 34 -95 9 -16 -15
-19 -14 -41 9 -28 30 -63 32 -90 5 -19 -19 -20 -19 -44 5 -14 14 -30 25 -36
25 -15 0 -53 -21 -62 -33 -3 -6 -17 -1 -33 12 -36 27 -61 27 -88 -3z m-20
-176 c15 0 36 9 48 20 l22 20 18 -20 c23 -25 67 -26 89 -1 17 18 18 18 41 -5
30 -29 52 -30 81 -3 l22 20 25 -25 c31 -31 56 -33 87 -8 22 18 23 17 50 -10
35 -35 54 -35 86 -3 l26 26 25 -26 c30 -30 62 -32 89 -6 19 18 20 18 47 -5 35
-29 76 -31 110 -4 l25 20 22 -35 c12 -20 39 -44 59 -55 67 -34 117 -104 157
-220 14 -42 19 -84 19 -175 l0 -120 -64 -194 -65 -194 -16 99 c-27 157 -70
288 -126 376 -25 39 -25 42 -14 110 14 81 5 191 -17 213 -17 17 -41 19 -63 5
-12 -7 -15 -33 -16 -117 0 -122 -19 -181 -76 -240 -38 -39 -44 -40 -52 -9 -7
27 -35 41 -65 31 -20 -6 -23 -13 -35 -66 -5 -23 -40 -49 -67 -49 -5 0 -7 16
-3 38 4 29 1 43 -14 62 -17 21 -24 23 -48 15 -23 -8 -30 -18 -32 -42 -2 -21
-14 -41 -33 -58 -36 -30 -75 -35 -63 -7 14 32 16 102 4 117 -7 8 -25 15 -41
15 -30 0 -49 -23 -49 -59 0 -24 -35 -59 -68 -68 -31 -8 -35 -1 -17 33 29 56
10 124 -36 124 -24 0 -49 -27 -49 -54 0 -27 -37 -64 -67 -68 -26 -4 -27 1 -12
52 10 33 9 43 -5 65 -28 42 -86 28 -86 -21 0 -23 -51 -74 -74 -74 -10 0 -12
13 -8 48 5 55 -10 75 -55 70 -21 -2 -30 -10 -36 -33 -15 -50 -22 -59 -63 -82
-51 -29 -64 -29 -64 3 0 41 -18 64 -48 64 -35 0 -52 -16 -52 -50 0 -36 -33
-64 -116 -98 -171 -71 -254 -163 -254 -284 0 -69 -17 -48 -44 55 -40 152 -46
198 -46 328 0 174 35 315 103 416 33 48 41 52 92 39 19 -5 32 0 51 19 24 24
28 25 43 11 34 -31 98 -11 113 35 3 10 9 9 28 -4 14 -9 35 -17 47 -17 23 0 56
26 65 51 4 11 11 9 30 -8 33 -31 54 -29 89 7 30 29 30 29 49 10 27 -27 64 -25
88 5 19 24 20 24 37 5 25 -27 57 -25 85 5 23 25 24 25 42 5 10 -11 31 -20 45
-20z m877 -794 c42 -160 51 -253 51 -526 0 -277 -10 -359 -61 -521 -95 -304
-273 -488 -559 -575 -83 -26 -103 -28 -255 -28 -197 0 -269 16 -426 94 -251
123 -391 343 -446 700 -17 113 -17 597 0 700 11 61 19 81 45 108 113 118 463
187 692 136 208 -46 284 -56 420 -57 104 0 156 4 204 17 89 24 175 70 219 116
l37 38 27 -53 c15 -30 39 -97 52 -149z m548 -231 c184 -235 301 -513 343 -813
23 -164 16 -430 -15 -577 -83 -389 -287 -732 -585 -983 l-100 -84 -5 284 c-5
268 -6 286 -28 333 -12 27 -30 57 -39 67 -19 21 -22 19 47 47 83 35 182 105
217 153 63 88 66 172 8 262 -214 335 -275 732 -179 1165 24 106 77 288 103
355 l12 30 75 -75 c42 -41 108 -114 146 -164z m-2442 -72 c31 -144 42 -307 30
-451 -14 -161 -38 -291 -110 -604 -66 -282 -73 -354 -41 -416 29 -57 113 -129
195 -168 l74 -35 -29 -47 c-50 -83 -59 -141 -59 -404 0 -131 -3 -238 -6 -238
-11 0 -158 127 -210 182 -236 246 -399 562 -460 893 -29 154 -26 501 5 645 49
228 136 437 260 621 66 99 182 237 246 291 l30 26 27 -101 c15 -56 37 -143 48
-194z m191 -909 c80 -192 217 -339 403 -433 l68 -35 -7 -35 c-19 -107 -88
-150 -237 -151 -41 0 -87 -7 -116 -18 -49 -19 -50 -19 -108 3 l-58 22 53 6
c69 8 121 36 145 76 17 29 17 33 2 56 -21 32 -48 32 -81 1 -33 -31 -72 -40
-135 -31 -53 7 -58 19 -12 30 60 13 127 90 146 167 5 21 1 33 -14 48 -37 37
-57 26 -94 -50 -25 -53 -65 -78 -136 -87 -48 -6 -52 -5 -47 13 19 62 142 616
148 663 0 3 11 -33 25 -82 13 -48 38 -121 55 -163z m1884 -153 c25 -58 68
-144 95 -191 28 -46 48 -90 46 -96 -12 -32 -180 -30 -224 3 -26 19 -66 71 -74
95 -3 7 -12 9 -21 5 -16 -6 -16 -9 -2 -44 38 -90 109 -127 230 -121 l77 3 -44
-18 c-24 -10 -68 -21 -99 -24 -47 -5 -65 -1 -110 20 -30 15 -61 32 -70 38 -45
33 -101 -30 -64 -71 28 -31 99 -69 156 -84 l53 -13 -61 -20 c-59 -21 -61 -21
-114 -2 -35 12 -83 18 -136 19 -178 0 -223 28 -223 134 l1 61 86 50 c179 104
297 259 398 520 5 15 13 -2 31 -69 13 -49 44 -137 69 -195z m-666 -478 l12
-23 -110 0 c-123 0 -138 -7 -196 -89 -15 -23 -34 -41 -41 -41 -7 0 -31 26 -54
58 -23 31 -49 60 -58 64 -9 4 -72 7 -139 7 l-122 1 24 49 c14 27 25 61 25 75
0 31 4 31 84 9 91 -26 384 -24 481 3 l70 19 6 -55 c3 -30 11 -65 18 -77z
m-466 -160 c21 -32 24 -46 20 -88 -6 -61 18 -99 76 -116 72 -21 134 33 135
118 1 36 8 57 30 86 l28 37 277 0 c269 0 277 -1 327 -24 28 -13 65 -41 82 -62
58 -71 62 -96 62 -430 l0 -303 -87 -47 c-120 -66 -287 -131 -423 -166 -98 -25
-145 -31 -320 -39 -354 -16 -534 24 -852 188 l-128 66 0 311 c0 291 2 314 21
356 27 60 64 98 124 126 49 23 57 24 326 24 l276 0 26 -37z"/>
<path d="M3131 3643 c-37 -25 -25 -64 29 -91 41 -21 45 -25 42 -55 -7 -79 92
-121 138 -59 20 27 23 28 62 18 36 -10 42 -9 59 12 32 40 13 62 -97 108 -194
80 -209 85 -233 67z"/>
<path d="M2545 3618 c-109 -7 -133 -11 -150 -28 -18 -19 -19 -22 -4 -48 13
-24 21 -27 67 -27 l52 0 0 -32 c0 -43 30 -73 73 -73 48 0 69 20 76 71 5 40 9
44 36 47 33 4 65 28 65 49 0 21 -38 53 -62 52 -13 -1 -81 -6 -153 -11z"/>
<path d="M3174 2928 c-5 -7 -18 -30 -29 -52 -26 -51 -87 -102 -147 -122 -49
-16 -98 -15 -185 2 -26 5 -34 2 -48 -20 -16 -24 -16 -28 -2 -50 21 -31 100
-50 182 -44 120 10 235 86 291 192 24 47 27 58 16 80 -9 19 -19 26 -41 26 -16
0 -33 -6 -37 -12z"/>
<path d="M2616 1944 c-30 -29 -19 -58 43 -117 33 -32 69 -57 80 -57 19 0 51
34 51 53 0 17 -123 137 -141 137 -10 0 -25 -7 -33 -16z"/>
<path d="M3128 1902 c-34 -34 -58 -68 -58 -80 0 -25 25 -52 49 -52 19 0 141
121 141 139 0 17 -38 51 -57 51 -9 0 -42 -26 -75 -58z"/>
<path d="M2879 1805 c-15 -8 -29 -20 -32 -27 -2 -8 -17 -88 -32 -178 l-27
-165 31 -85 c40 -108 81 -184 103 -188 22 -4 56 56 103 178 l36 94 -27 166
c-25 148 -31 168 -55 193 -30 30 -60 34 -100 12z"/>
<path d="M4780 1488 c2 -54 30 -153 48 -167 11 -9 51 -42 90 -73 38 -32 74
-58 79 -58 6 0 18 11 27 25 16 24 15 27 -10 70 -38 65 -106 138 -168 179 -60
40 -66 42 -66 24z"/>
<path d="M4303 1244 c-38 -47 -70 -90 -71 -95 -5 -12 115 -196 131 -202 7 -2
62 10 122 27 l110 32 7 109 c4 61 5 117 2 126 -4 15 -189 89 -221 89 -7 0 -43
-39 -80 -86z"/>
<path d="M4873 906 c-46 -18 -87 -36 -93 -42 -15 -15 -46 -222 -34 -234 5 -5
38 -16 74 -24 l65 -15 73 77 c70 74 73 79 68 117 -9 66 -40 150 -56 151 -8 1
-52 -12 -97 -30z"/>
<path d="M4208 706 c-43 -7 -80 -15 -84 -18 -3 -4 1 -31 10 -61 17 -57 47 -91
110 -124 l31 -16 -45 -11 c-25 -6 -44 -15 -43 -21 5 -25 123 -37 393 -38 267
-2 410 9 434 33 17 17 -47 32 -144 33 -80 2 -105 -2 -155 -22 -48 -20 -83 -25
-170 -28 -139 -5 -149 1 -103 59 19 23 38 48 42 55 7 13 -166 174 -186 172 -7
-1 -48 -7 -90 -13z"/>
</g>
</svg>
