<?xml version="1.0" standalone="no"?>
<!DOCTYPE svg PUBLIC "-//W3C//DTD SVG 20010904//EN"
 "http://www.w3.org/TR/2001/REC-SVG-20010904/DTD/svg10.dtd">
<svg version="1.0" xmlns="http://www.w3.org/2000/svg"
 width="260.000000pt" height="260.000000pt" viewBox="0 0 260.000000 260.000000"
 preserveAspectRatio="xMidYMid meet">
<metadata>
Created by potrace 1.11, written by Peter Selinger 2001-2013
</metadata>
<g transform="translate(0.000000,260.000000) scale(0.100000,-0.100000)"
fill="#000000" stroke="none">
<path d="M0 1300 l0 -1300 1300 0 1300 0 0 1300 0 1300 -1300 0 -1300 0 0
-1300z m1425 1060 c166 -19 340 -82 482 -177 76 -50 194 -162 255 -243 62 -81
151 -261 177 -359 48 -175 48 -387 0 -562 -26 -98 -115 -278 -177 -359 -307
-403 -847 -539 -1299 -325 -121 57 -192 105 -282 190 -102 96 -164 181 -227
310 -63 131 -89 221 -105 361 -20 188 13 375 96 551 57 121 105 192 190 282
96 102 181 164 310 227 197 96 372 127 580 104z"/>
<path d="M1202 2189 c-189 -22 -367 -107 -511 -243 -281 -268 -357 -695 -184
-1041 246 -491 859 -651 1313 -342 262 179 415 513 380 830 -48 425 -370 748
-795 797 -100 11 -100 11 -203 -1z m-282 -729 l0 -30 -60 0 -60 0 0 -45 0 -45
60 0 c57 0 60 -1 60 -25 0 -24 -3 -25 -60 -25 l-60 0 0 -70 0 -70 -35 0 -35 0
0 170 0 170 95 0 95 0 0 -30z m260 0 l0 -30 -60 0 -60 0 0 -45 0 -45 60 0 c57
0 60 -1 60 -25 0 -22 -4 -24 -57 -27 l-58 -3 -3 -67 -3 -68 -34 0 -35 0 0 170
0 170 95 0 95 0 0 -30z m140 -140 l0 -170 -35 0 -35 0 0 170 0 170 35 0 35 0
0 -170z m280 140 l0 -30 -60 0 -60 0 0 -45 0 -45 55 0 c52 0 55 -1 55 -25 0
-24 -3 -25 -55 -25 l-55 0 0 -70 0 -70 -35 0 -35 0 0 170 0 170 95 0 95 0 0
-30z m279 -128 c30 -86 56 -163 59 -170 3 -10 -5 -13 -33 -10 -34 3 -40 7 -50
38 l-12 35 -63 0 -63 0 -12 -35 c-10 -30 -16 -35 -48 -38 -20 -2 -37 0 -37 4
0 4 26 81 57 171 l57 163 46 0 45 0 54 -158z"/>
<path d="M1757 1360 c-10 -33 -17 -62 -17 -65 0 -3 18 -5 40 -5 22 0 40 2 40
5 0 17 -34 125 -40 125 -4 0 -14 -27 -23 -60z"/>
</g>
</svg>
